<?xml version="1.0" encoding="UTF-8" standalone="no"?>
<!-- Uploaded to: SVG Repo, www.svgrepo.com, Generator: SVG Repo Mixer Tools -->

<svg
   width="1095.4761"
   height="364.82413"
   viewBox="0 -139 701.10469 233.48744"
   version="1.1"
   preserveAspectRatio="xMidYMid"
   id="svg2"
   sodipodi:docname="logo_Kafka.svg"
   inkscape:version="1.4.2 (f4327f4, 2025-05-13)"
   xmlns:inkscape="http://www.inkscape.org/namespaces/inkscape"
   xmlns:sodipodi="http://sodipodi.sourceforge.net/DTD/sodipodi-0.dtd"
   xmlns="http://www.w3.org/2000/svg"
   xmlns:svg="http://www.w3.org/2000/svg">
  <defs
     id="defs2" />
  <sodipodi:namedview
     id="namedview2"
     pagecolor="#ffffff"
     bordercolor="#000000"
     borderopacity="0.25"
     inkscape:showpageshadow="2"
     inkscape:pageopacity="0.0"
     inkscape:pagecheckerboard="0"
     inkscape:deskcolor="#d1d1d1"
     inkscape:zoom="0.504375"
     inkscape:cx="326.14622"
     inkscape:cy="441.14002"
     inkscape:window-width="1920"
     inkscape:window-height="1009"
     inkscape:window-x="-8"
     inkscape:window-y="-8"
     inkscape:window-maximized="1"
     inkscape:current-layer="svg2" />
  <g
     fill="#1a1919"
     id="g2"
     transform="translate(-0.00501471,-139.20364)">
    <path
       d="M 49.763481,20.97959 C 47.180905,18.386985 43.597895,16.7898 39.603678,16.7898 c -3.984188,0 -7.539618,1.597185 -10.089598,4.18979 h -0.06519 c -2.575054,2.575054 -4.172239,6.168095 -4.172239,10.137238 0,3.99171 1.597185,7.562184 4.172239,10.112164 l 0.06519,0.07021 c 2.54998,2.570039 6.10541,4.144659 10.089598,4.144659 3.994217,0 7.577227,-1.57462 10.159803,-4.144659 l 0.03009,-0.07021 c 2.585084,-2.54998 4.16221,-6.120454 4.16221,-10.112164 0,-3.969143 -1.577126,-7.562184 -4.16221,-10.137238 z M 39.603678,217.10492 c 3.994217,0 7.577227,-1.62727 10.159803,-4.17224 l 0.03009,-0.0752 c 2.585084,-2.53995 4.16221,-6.13299 4.16221,-10.08207 0,-3.99171 -1.577126,-7.5672 -4.16221,-10.15479 h -0.03009 c -2.582576,-2.61768 -6.165586,-4.19982 -10.159803,-4.19982 -3.984188,0 -7.539618,1.58214 -10.089598,4.19982 h -0.06519 c -2.575054,2.58759 -4.172239,6.16308 -4.172239,10.15479 0,3.94908 1.597185,7.54212 4.172239,10.08207 l 0.06519,0.0752 c 2.54998,2.54497 6.10541,4.17224 10.089598,4.17224 z m 78.061492,-43.40984 c 3.54791,-0.93273 6.75983,-3.20941 8.72309,-6.65452 l 0.26327,-0.50398 c 1.74512,-3.26207 2.06356,-7.03313 1.13082,-10.38045 -0.94026,-3.57298 -3.24201,-6.74228 -6.67959,-8.71557 l -0.2031,-0.13539 c -3.34983,-1.8404 -7.16101,-2.24158 -10.66629,-1.28628 -3.56295,0.89011 -6.76484,3.26207 -8.71557,6.67709 -1.975793,3.39496 -2.387,7.29641 -1.44173,10.88694 0.97536,3.53286 3.25956,6.72472 6.67709,8.72058 h 0.0201 c 3.42505,1.96827 7.2964,2.32181 10.89195,1.39158 z M 54.299287,102.26554 c -3.761033,-3.751001 -8.951259,-6.1029 -14.695609,-6.1029 -5.736829,0 -10.912011,2.351899 -14.665522,6.1029 -3.740974,3.74599 -6.047741,8.91365 -6.047741,14.658 0,5.74435 2.306767,10.93458 6.047741,14.72319 3.753511,3.72844 8.928693,6.05777 14.665522,6.05777 5.74435,0 10.934576,-2.32933 14.695609,-6.05777 3.751004,-3.78861 6.057771,-8.97884 6.057771,-14.72319 0,-5.74435 -2.306767,-10.91201 -6.057771,-14.658 z M 46.035044,77.846409 c 8.339464,1.374031 15.826427,5.368248 21.550719,11.132658 h 0.04263 c 0.91017,0.907663 1.795266,1.908098 2.620186,2.906025 L 84.553037,83.610819 C 82.629895,77.79877 82.53963,71.723448 84.086668,66.024229 86.125148,58.394347 91.07216,51.564311 98.488917,47.284255 l 0.240707,-0.152948 c 7.336526,-4.149673 15.673476,-5.014711 23.198046,-2.976231 7.62236,2.043495 14.49753,7.013073 18.77759,14.417293 v 0.02257 c 4.26,7.364103 5.12253,15.81389 3.09157,23.421206 -2.02845,7.627375 -6.99302,14.505051 -14.40225,18.760025 l -1.95323,1.15339 h -0.19808 c -6.8526,3.26207 -14.38721,3.77357 -21.30751,1.95072 -5.68166,-1.50441 -10.891949,-4.678721 -14.973923,-9.179424 l -14.284404,8.251704 c 1.642318,4.34274 2.549981,9.02397 2.549981,13.97098 0,4.92194 -0.907663,9.67087 -2.549981,14.03618 l 14.284404,8.22914 c 4.081974,-4.57091 9.292263,-7.67251 14.973923,-9.18194 7.62487,-2.08361 16.07466,-1.19851 23.45882,3.10662 l 0.47389,0.22064 v 0.0226 c 7.13342,4.32519 11.92247,10.99977 13.92836,18.53938 2.03096,7.56219 1.16843,16.01699 -3.09157,23.39614 l -0.25826,0.514 -0.0301,-0.0426 c -4.27755,7.11337 -11.02233,11.9325 -18.46667,13.97098 -7.6349,2.01341 -16.08719,1.15339 -23.461323,-3.08906 v -0.0577 C 91.07216,182.30032 86.125148,175.45524 84.086668,167.84041 82.53963,162.16626 82.629895,156.09094 84.553037,150.2814 l -14.304463,-8.25422 c -0.82492,0.99793 -1.710016,1.95323 -2.620186,2.8609 l -0.04263,0.0451 c -5.724292,5.74435 -13.211255,9.73606 -21.550719,11.06496 v 16.52848 c 5.942432,1.24114 11.26304,4.21236 15.430265,8.38209 l 0.02257,0.0426 c 5.586388,5.56131 9.046538,13.30904 9.046538,21.82402 0,8.4899 -3.46015,16.1925 -9.046538,21.78139 l -0.02257,0.0878 c -5.626506,5.58639 -13.344145,9.04654 -21.861631,9.04654 -8.472354,0 -16.210053,-3.46015 -21.824021,-9.04654 h -0.02257 v -0.0878 c -5.591402,-5.58889 -9.0590743,-13.29149 -9.0590743,-21.78139 0,-8.51498 3.4676723,-16.26271 9.0590743,-21.82402 v -0.0426 h 0.02257 c 4.164717,-4.16973 9.495354,-7.14095 15.41522,-8.38209 v -16.52848 c -8.336956,-1.3289 -15.811383,-5.32061 -21.525645,-11.06496 l -0.06018,-0.0451 C 4.4731219,137.72707 0.00501471,127.85812 0.00501471,116.92354 c 0,-10.91201 4.46810719,-20.780959 11.60404029,-27.944473 h 0.06018 C 17.383494,83.214657 24.857921,79.22044 33.194877,77.846409 V 61.388129 C 27.275011,60.104363 21.944374,57.133147 17.779657,52.985981 h -0.02257 v -0.04513 C 12.165688,47.329388 8.6980157,39.634314 8.6980157,31.116828 c 0,-8.472354 3.4676723,-16.235126 9.0590743,-21.8240206 l 0.02257,-0.022566 c 5.613968,-5.6089539 13.351667,-9.06659693 21.824021,-9.06659693 8.517486,0 16.235125,3.45764303 21.861631,9.06659693 v 0.022566 h 0.02257 c 5.586388,5.5888946 9.046538,13.3516666 9.046538,21.8240206 0,8.517486 -3.46015,16.21256 -9.046538,21.824021 l -0.02257,0.04513 c -4.167225,4.147166 -9.487833,7.118382 -15.430265,8.402148 z m 80.353216,-10.977201 -0.12286,-0.18053 c -1.97078,-3.324753 -5.12002,-5.541255 -8.60023,-6.496557 -3.59555,-0.955303 -7.4669,-0.554126 -10.91201,1.42167 h 0.0201 c -3.43759,1.950722 -5.73683,5.140078 -6.69715,8.715567 -0.94527,3.547908 -0.534063,7.469412 1.44173,10.886937 l 0.0677,0.08776 c 1.97831,3.372393 5.13005,5.634028 8.64787,6.544198 3.53537,1.000435 7.47443,0.576692 10.86939,-1.399104 l 0.18303,-0.08776 c 3.34231,-1.995855 5.56884,-5.145093 6.49656,-8.605243 0.94778,-3.570474 0.56917,-7.471919 -1.39409,-10.886937 z"
       id="path1" />
    <path
       d="m 189.85945,71.703389 h 15.96183 V 120.42632 L 228.8388,94.966632 h 19.13864 l -27.78902,29.496528 27.90436,37.38968 h -18.27611 l -23.99539,-33.39797 v 33.39797 h -15.96183 z m 76.65988,56.994691 c 0,8.29684 5.96751,20.35973 20.34469,20.35973 8.89609,0 14.75077,-4.6361 17.78717,-10.71142 1.58967,-2.94865 2.32182,-6.1004 2.56754,-9.38002 0.11032,-3.17431 -0.48894,-6.47399 -1.8379,-9.40509 -2.7982,-6.31853 -9.00892,-11.79711 -18.63466,-11.79711 -12.90787,0 -20.22684,10.4657 -20.22684,20.82359 z m 56.53335,33.15476 h -15.96935 v -9.62323 c -4.24997,7.78283 -13.14857,11.68929 -22.5336,11.68929 -21.44541,0 -33.98971,-16.70149 -33.98971,-35.57435 0,-21.06931 15.22717,-35.441472 33.98971,-35.441472 12.18324,0 19.61253,6.45644 22.5336,11.822182 v -9.758628 h 15.96935 z m 18.07301,-54.5776 h -8.27176 V 94.966632 h 8.27176 v -3.768555 c 0,-19.873299 15.11183,-21.071815 26.57045,-21.204704 v 12.286041 c -4.02932,0 -10.6011,0 -10.6011,9.402582 v 3.284636 h 10.6011 v 12.308608 h -10.6011 v 54.5776 h -15.96935 z m 37.42479,-35.571851 h 15.95681 v 48.722931 l 23.02254,-25.459688 h 19.13864 l -27.78902,29.496528 27.89934,37.38968 h -18.27611 l -23.99539,-33.39797 v 33.39797 h -15.95681 z m 76.65988,56.994691 c 0,8.29684 5.965,20.35973 20.34468,20.35973 8.88356,0 14.73824,-4.6361 17.77966,-10.71142 1.59468,-2.94865 2.32933,-6.1004 2.57004,-9.38002 0.11032,-3.17431 -0.48894,-6.47399 -1.8404,-9.40509 -2.7932,-6.31853 -9.00391,-11.79711 -18.62714,-11.79711 -12.91038,0 -20.22684,10.4657 -20.22684,20.82359 z m 56.52833,33.15476 h -15.96433 v -9.62323 c -4.26251,7.78283 -13.15359,11.68929 -22.53361,11.68929 -21.44541,0 -33.97968,-16.70149 -33.97968,-35.57435 0,-21.06931 15.22216,-35.441472 33.97968,-35.441472 12.17572,0 19.61254,6.45644 22.53361,11.822182 v -9.758628 h 15.96433 z"
       id="path2" />
  </g>
  <text
     xml:space="preserve"
     style="font-size:163.862px;font-family:'Yu Gothic UI';-inkscape-font-specification:'Yu Gothic UI';text-align:start;writing-mode:lr-tb;direction:ltr;text-anchor:start;fill:#feffff;fill-opacity:1;stroke:#ffffff;stroke-width:0.682757;stroke-opacity:1"
     x="511.69791"
     y="22.071136"
     id="text2"><tspan
       id="tspan2"
       style="font-style:normal;font-variant:normal;font-weight:normal;font-stretch:normal;font-size:163.862px;font-family:'Tw Cen MT';-inkscape-font-specification:'Tw Cen MT';fill:#000000;fill-opacity:1;stroke:#000000;stroke-width:0.682757;stroke-opacity:1"
       x="511.69791"
       y="22.071136"
       sodipodi:role="line">-ml</tspan></text>
</svg>
